<svg width="19" height="19" viewBox="0 0 19 19" fill="none" xmlns="http://www.w3.org/2000/svg">
<g clip-path="url(#clip0)">
<path d="M1.98906 2.38609C4.13398 0.582576 7.44785 0.853474 9.5 2.94273C11.5521 0.853474 14.866 0.578865 17.0109 2.38609C19.8016 4.73512 19.3934 8.5648 17.4043 10.5947L10.8953 17.2261C10.5242 17.6046 10.0269 17.8162 9.5 17.8162C8.96933 17.8162 8.47578 17.6084 8.10468 17.2298L1.5957 10.5984C-0.389652 8.56851 -0.805279 4.73883 1.98906 2.38609ZM2.86484 9.3441L9.37382 15.9755C9.46289 16.0646 9.5371 16.0646 9.62617 15.9755L16.1352 9.3441C17.4896 7.96363 17.7643 5.35113 15.8643 3.75172C14.4207 2.53824 12.1941 2.72008 10.7988 4.14136L9.5 5.46617L8.20117 4.14136C6.79843 2.71265 4.57187 2.53824 3.13574 3.74801C1.23945 5.34742 1.52148 7.97476 2.86484 9.3441Z" fill="black"/>
</g>
<defs>
<clipPath id="clip0">
<rect width="19" height="19" fill="white" transform="matrix(-1 0 0 1 19 0)"/>
</clipPath>
</defs>
</svg>
