<svg width="352" height="244" viewBox="0 0 352 244" fill="none" xmlns="http://www.w3.org/2000/svg">
<g clip-path="url(#clip0)">
<path d="M310.979 211.383C310.979 211.383 355.751 190.775 340.023 176.485C324.294 162.194 310.979 211.383 310.979 211.383Z" fill="#3F3D56"/>
<path d="M311.758 216.191C311.758 216.191 332.337 148.587 302.034 151.82C271.731 155.053 311.758 216.191 311.758 216.191Z" fill="#3F3D56"/>
<path d="M326.763 210.196L325.899 221.505L325.885 221.7C325.886 223.466 325.797 225.231 325.618 226.988C324.446 238.523 319.407 243.779 313.519 243.779C307.631 243.779 302.811 238.523 301.639 226.988C301.46 225.231 301.371 223.466 301.372 221.7L301.365 221.542L301.362 221.505L300.494 210.196H326.763Z" fill="#3F3D56"/>
<path d="M301.362 221.505L301.365 221.542L301.372 221.7C301.371 223.466 301.46 225.231 301.639 226.988H325.618C325.797 225.231 325.886 223.466 325.885 221.7L325.899 221.505H301.362Z" fill="white"/>
<path d="M18.9632 218.299C18.9632 218.299 53.6266 202.344 41.4494 191.28C29.2722 180.216 18.9632 218.299 18.9632 218.299Z" fill="#3F3D56"/>
<path d="M19.5666 222.022C19.5666 222.022 35.4991 169.681 12.0378 172.184C-11.4235 174.687 19.5666 222.022 19.5666 222.022Z" fill="#3F3D56"/>
<path d="M31.1832 217.38L30.5144 226.135L30.5038 226.286C30.5045 227.654 30.4354 229.02 30.2969 230.38C29.3893 239.311 25.4885 243.381 20.9296 243.381C16.3707 243.381 12.6397 239.311 11.7322 230.38C11.5936 229.02 11.5246 227.654 11.5252 226.286L11.5199 226.164L11.5172 226.135L10.8459 217.38H31.1832Z" fill="#3F3D56"/>
<path d="M11.5172 226.135L11.5198 226.164L11.5252 226.286C11.5245 227.654 11.5936 229.02 11.7321 230.38H30.2969C30.4354 229.02 30.5045 227.654 30.5038 226.286L30.5144 226.135H11.5172Z" fill="white"/>
<path d="M235.305 72.7785V57.3979H237.697V72.7785C238.383 73.056 238.951 73.5635 239.304 74.2139C239.657 74.8644 239.773 75.6173 239.631 76.3437C239.49 77.0701 239.1 77.7247 238.529 78.1953C237.958 78.666 237.241 78.9234 236.501 78.9234C235.761 78.9234 235.044 78.666 234.473 78.1953C233.901 77.7247 233.512 77.0701 233.37 76.3437C233.229 75.6173 233.345 74.8644 233.698 74.2139C234.051 73.5635 234.619 73.056 235.305 72.7785Z" fill="#3F3D56"/>
<path d="M229.724 227.997H246.069V29.4961H252.447V227.997H268.793C270.73 227.997 272.648 228.379 274.437 229.12C276.227 229.861 277.853 230.947 279.223 232.317C280.593 233.686 281.679 235.312 282.42 237.101C283.162 238.891 283.543 240.808 283.543 242.745V242.745H214.973V242.745C214.973 240.808 215.355 238.891 216.096 237.101C216.837 235.312 217.924 233.686 219.293 232.317C220.663 230.947 222.289 229.861 224.079 229.12C225.868 228.379 227.787 227.997 229.724 227.997Z" fill="#3F3D56"/>
<path d="M283.51 58.9922H215.006L219.195 6.64047C219.348 4.83527 220.172 3.15272 221.503 1.92381C222.834 0.694905 224.578 0.00861649 226.39 -3.05176e-05H272.127C273.939 0.00861605 275.682 0.694902 277.013 1.9238C278.345 3.15271 279.168 4.83526 279.321 6.64045L283.51 58.9922Z" fill="#788BFF"/>
<path d="M188.128 150.877C188.772 150.769 189.431 150.791 190.067 150.941C190.703 151.091 191.303 151.365 191.831 151.749C192.36 152.132 192.808 152.617 193.148 153.175C193.488 153.732 193.713 154.352 193.812 154.998L195.74 167.653L189.178 169.393L184.37 157.602C184.091 156.917 183.969 156.178 184.014 155.439C184.06 154.701 184.27 153.982 184.631 153.336C184.992 152.69 185.494 152.134 186.099 151.708C186.704 151.282 187.398 150.998 188.128 150.877Z" fill="#A0616A"/>
<path d="M188.25 167.629C184.608 182.099 186.176 195.334 199.737 205.725C216.002 201.242 226.82 190.427 233.42 174.707C233.83 173.73 234.038 172.68 234.032 171.62C234.025 170.56 233.803 169.512 233.38 168.54C232.957 167.568 232.342 166.692 231.571 165.964C230.8 165.237 229.889 164.673 228.894 164.307C227.399 163.757 225.772 163.676 224.23 164.074C222.688 164.471 221.303 165.329 220.26 166.532L204.301 184.949L196.814 166.379L188.25 167.629Z" fill="#788BFF"/>
<path d="M104.913 243.545C119.765 242.756 128.991 237.658 131.225 227.203L128.833 222.818L101.447 235.292C100.756 235.607 100.174 236.12 99.7749 236.767C99.3761 237.413 99.1785 238.164 99.2074 238.923C99.2363 239.682 99.4903 240.415 99.937 241.03C100.384 241.644 101.003 242.112 101.717 242.373L104.913 243.545Z" fill="#3F3D56"/>
<path d="M116.389 243.65C124.106 243.416 131.526 243.489 138.558 243.965C139.792 244.049 141.008 243.644 141.945 242.837C142.881 242.029 143.462 240.886 143.56 239.654L143.982 234.377L149.962 224.811L144.78 219.629C136.07 228.302 126.518 235.587 115.174 239.918C114.809 240.167 114.535 240.529 114.393 240.947C114.251 241.365 114.248 241.818 114.385 242.238C114.522 242.659 114.791 243.023 115.152 243.278C115.513 243.532 115.947 243.663 116.389 243.65Z" fill="#3F3D56"/>
<path d="M158.334 206.077C168.188 223.705 177.879 235.589 190.626 241.951C206.309 247.126 217.771 240.269 226.705 226.206L200.792 209.067L197.005 212.853L162.681 186.738C161.842 185.944 160.724 185.513 159.57 185.539C158.416 185.565 157.318 186.045 156.516 186.875L127.239 222.818L130.827 228.797L158.334 206.077Z" fill="#2F2E41"/>
<path d="M149.564 226.804L163.118 206.077L159.929 200.098L141.989 218.832L149.564 226.804Z" fill="#2F2E41"/>
<path d="M227.702 160.637C220.216 160.637 214.147 154.57 214.147 147.085C214.147 139.6 220.216 133.533 227.702 133.533C235.188 133.533 241.256 139.6 241.256 147.085C241.256 154.57 235.188 160.637 227.702 160.637Z" fill="#A0616A"/>
<path d="M224.114 172.196L239.263 167.015C237.021 163.453 236.039 159.243 236.472 155.057H224.114C224.816 161.138 224.922 166.907 224.114 172.196Z" fill="#A0616A"/>
<path d="M191.822 208.469C194.093 209.401 194.259 212.424 196.407 213.451C206.788 218.417 217.771 222.447 225.31 229.594C242.928 217.632 259.258 180.48 238.067 164.224C230.834 168.456 224.372 171.485 224.512 164.224L191.822 208.469Z" fill="#788BFF"/>
<path opacity="0.2" d="M200.991 192.525L208.366 189.934L222.918 201.294L229.441 177.815C229.893 176.187 230.626 177.012 231.679 178.144C232.776 177.128 234.141 176.448 235.612 176.182C237.083 175.917 238.6 176.078 239.983 176.646C241.365 177.213 242.557 178.165 243.417 179.388C244.277 180.611 244.769 182.054 244.836 183.547C245.611 200.578 240.475 214.986 227.702 226.007C210.995 222.43 203.905 211.145 200.991 196.511L201.781 195.984C201.49 194.853 201.227 193.7 200.991 192.525Z" fill="black"/>
<path d="M225.878 129.257C221.407 130.278 216.318 131.726 216.032 133.071C211.433 134.229 207.962 137.005 207.253 141.237C207.194 141.602 207.215 141.977 207.316 142.333C207.418 142.689 207.596 143.019 207.838 143.3C208.081 143.58 208.381 143.803 208.72 143.955C209.058 144.106 209.425 144.181 209.796 144.175C212.297 144.143 216.052 143.904 218.531 142.868C225.734 147.508 226.943 159.577 223.797 167.792L228.747 167.338L233.868 152.35L235.176 166.749L246.471 165.256L245.016 146.894C244.569 142.567 243.096 138.408 240.719 134.764C240.473 134.398 240.202 134.048 239.911 133.717C238.193 131.776 235.981 130.336 233.51 129.551C231.039 128.766 228.402 128.664 225.878 129.257Z" fill="#2F2E41"/>
<path d="M200.394 174.756L187.989 189.338L169.381 167.381L181.954 152.128L200.394 174.756Z" fill="#3F3D56"/>
<path d="M172.566 167.884L187.319 155.816C186.481 153.804 182.457 154.475 182.457 154.475L170.909 166.18C170.507 166.587 170.162 167.048 169.884 167.548L172.566 167.884Z" fill="#F2F2F2"/>
<path d="M171.896 167.045L188.66 153.972L207.268 182.131L189.749 193.947C188.073 194.618 186.397 193.444 186.397 193.444L169.298 167.297L171.896 167.045Z" fill="#3F3D56"/>
<path d="M186.569 158.052L186.728 158.273L175.998 165.982L175.84 165.761L186.569 158.052Z" fill="#788BFF"/>
<path d="M175.697 168.647L189.779 189.933L189.552 190.083L175.471 168.797L175.697 168.647Z" fill="#788BFF"/>
<path d="M202.66 182.187L202.821 182.406L191.424 190.79L191.263 190.571L202.66 182.187Z" fill="#788BFF"/>
<path d="M188.604 158.42L203.188 179.371L202.965 179.526L188.381 158.575L188.604 158.42Z" fill="#788BFF"/>
<path d="M184.099 154.309L184.212 154.432L170.947 166.604L170.833 166.481L184.099 154.309Z" fill="#B3B3B3"/>
<path d="M185.204 154.413L185.315 154.539L171.451 166.776L171.34 166.65L185.204 154.413Z" fill="#B3B3B3"/>
<path d="M186.071 154.657L186.178 154.786L171.786 166.78L171.679 166.651L186.071 154.657Z" fill="#B3B3B3"/>
<path d="M193.698 179.037C194.235 178.664 194.84 178.401 195.478 178.264C196.117 178.126 196.776 178.117 197.419 178.237C198.061 178.357 198.673 178.603 199.219 178.961C199.765 179.319 200.235 179.783 200.601 180.324L207.768 190.93L202.586 195.315L193.187 186.723C192.641 186.224 192.214 185.608 191.938 184.922C191.662 184.235 191.545 183.495 191.594 182.757C191.643 182.019 191.858 181.301 192.222 180.657C192.586 180.013 193.091 179.459 193.698 179.037Z" fill="#A0616A"/>
<path d="M200.991 194.119C203.905 208.753 210.995 220.039 227.702 223.615C240.475 212.594 245.611 198.186 244.836 181.156C244.787 180.097 244.525 179.059 244.064 178.104C243.604 177.149 242.954 176.298 242.155 175.601C241.357 174.904 240.425 174.376 239.416 174.049C238.408 173.722 237.343 173.603 236.288 173.699C234.701 173.843 233.197 174.467 231.973 175.487C230.75 176.507 229.867 177.875 229.441 179.41L222.918 202.888L208.192 189.319L200.991 194.119Z" fill="#788BFF"/>
<path d="M0.157562 244H352V243.13H9.15527e-05L0.157562 244Z" fill="#3F3D56"/>
<path d="M168.102 36.4743C168.313 36.4745 168.516 36.5586 168.665 36.7081C168.815 36.8575 168.899 37.0602 168.899 37.2715V99.4526C168.899 99.6639 168.815 99.8666 168.665 100.016C168.516 100.165 168.313 100.25 168.102 100.25H116.275C116.064 100.25 115.861 100.165 115.712 100.016C115.562 99.8665 115.478 99.6639 115.478 99.4526V37.2715C115.478 37.0602 115.562 36.8575 115.712 36.7081C115.861 36.5586 116.064 36.4746 116.275 36.4743H168.102Z" fill="#3F3D56"/>
<path d="M162.72 94.0715H121.657V42.6526H162.72V94.0715Z" fill="white"/>
<path d="M81.8177 52.8168C81.9439 52.8169 82.0649 52.8671 82.1542 52.9563C82.2434 53.0456 82.2936 53.1665 82.2938 53.2927V84.2286C82.2936 84.3547 82.2434 84.4757 82.1542 84.5649C82.0649 84.6542 81.9439 84.7043 81.8177 84.7045H44.6885C44.5623 84.7043 44.4413 84.6541 44.352 84.5649C44.2628 84.4757 44.2126 84.3547 44.2125 84.2286V53.2927C44.2126 53.1666 44.2628 53.0456 44.352 52.9564C44.4413 52.8671 44.5623 52.817 44.6885 52.8168L81.8177 52.8168Z" fill="#3F3D56"/>
<path d="M78.6046 56.5053V81.016H47.9016V56.5053H78.6046Z" fill="white"/>
<path d="M134.938 40.8589H149.439C149.789 40.8602 150.134 40.769 150.437 40.5944C150.741 40.4198 150.994 40.1681 151.169 39.8646C151.344 39.5612 151.436 39.2169 151.435 38.8665C151.435 38.5161 151.341 38.1721 151.165 37.8694L143.915 25.3136C143.909 25.3033 143.903 25.293 143.897 25.2827C143.738 25.0156 143.519 24.7898 143.256 24.6236C142.994 24.4575 142.696 24.3557 142.387 24.3266L142.376 24.3257C142.315 24.32 142.252 24.3171 142.188 24.3171C141.838 24.315 141.494 24.4062 141.19 24.5814C140.887 24.7565 140.635 25.0092 140.462 25.3136L133.212 37.8694C133.037 38.1724 132.945 38.516 132.945 38.8659C132.945 39.2157 133.037 39.5594 133.212 39.8623C133.387 40.1653 133.638 40.4169 133.941 40.5918C134.244 40.7667 134.588 40.8588 134.938 40.8589ZM149.839 38.8639C149.838 38.9346 149.819 39.004 149.784 39.0652C149.75 39.1263 149.699 39.177 149.639 39.212C149.578 39.2471 149.509 39.2652 149.439 39.2645H134.938C134.868 39.2652 134.799 39.2471 134.738 39.2121C134.677 39.177 134.627 39.1263 134.593 39.0652C134.557 39.004 134.539 38.9348 134.538 38.8641C134.538 38.7947 134.557 38.7265 134.593 38.6668L141.843 26.1108C141.878 26.0502 141.928 25.9999 141.989 25.9649C142.05 25.9299 142.118 25.9115 142.188 25.9115C142.258 25.9115 142.327 25.9299 142.388 25.9649C142.448 25.9999 142.499 26.0502 142.534 26.1108L149.784 38.6666C149.82 38.7263 149.838 38.7944 149.839 38.8639Z" fill="#3F3D56"/>
<path d="M142.188 28.1038C141.528 28.1038 140.992 27.5684 140.992 26.908C140.992 26.2476 141.528 25.7122 142.188 25.7122C142.849 25.7122 143.384 26.2476 143.384 26.908C143.384 27.5684 142.849 28.1038 142.188 28.1038Z" fill="#3F3D56"/>
<path d="M59.3223 53.8133H67.184C67.374 53.814 67.5608 53.7646 67.7256 53.6699C67.8903 53.5752 68.0271 53.4387 68.1221 53.2742C68.2171 53.1097 68.2669 52.923 68.2665 52.7331C68.2662 52.5431 68.2156 52.3566 68.1199 52.1925L64.1891 45.3851L64.1793 45.3683C64.0934 45.2235 63.9744 45.1011 63.8322 45.011C63.69 44.921 63.5284 44.8658 63.3608 44.85L63.3551 44.8495C63.3215 44.8464 63.2874 44.8448 63.2531 44.8448C63.0632 44.8437 62.8764 44.8932 62.7119 44.9881C62.5475 45.0831 62.4112 45.2201 62.3172 45.3851L58.3864 52.1925C58.2915 52.3567 58.2416 52.5431 58.2416 52.7327C58.2416 52.9224 58.2916 53.1087 58.3864 53.273C58.4813 53.4372 58.6177 53.5736 58.782 53.6685C58.9462 53.7633 59.1326 53.8132 59.3223 53.8133ZM67.401 52.7317C67.4007 52.77 67.3904 52.8076 67.3713 52.8408C67.3526 52.8739 67.3253 52.9014 67.2924 52.9204C67.2595 52.9394 67.2221 52.9492 67.184 52.9488H59.3223C59.2843 52.9492 59.2468 52.9394 59.2139 52.9204C59.181 52.9014 59.1537 52.8739 59.1351 52.8408C59.1159 52.8076 59.1056 52.7701 59.1053 52.7318C59.1056 52.6941 59.1158 52.6572 59.1351 52.6248L63.0659 45.8173C63.0849 45.7845 63.1122 45.7572 63.1451 45.7382C63.1779 45.7192 63.2152 45.7093 63.2531 45.7093C63.2911 45.7093 63.3284 45.7192 63.3612 45.7382C63.3941 45.7572 63.4214 45.7845 63.4404 45.8173L67.3713 52.6247C67.3905 52.6571 67.4008 52.694 67.401 52.7317Z" fill="#3F3D56"/>
<path d="M63.2532 46.8979C62.8951 46.8979 62.6047 46.6076 62.6047 46.2495C62.6047 45.8915 62.8951 45.6012 63.2532 45.6012C63.6113 45.6012 63.9016 45.8915 63.9016 46.2495C63.9016 46.6076 63.6113 46.8979 63.2532 46.8979Z" fill="#3F3D56"/>
<path d="M162.25 74.4928C161.677 73.1776 160.842 71.9929 159.796 71.0111C158.75 70.0292 157.514 69.2708 156.165 68.782C154.763 68.2406 153.259 68.0086 151.759 68.102C150.258 68.1954 148.795 68.6119 147.47 69.323C144.359 70.9738 141.872 73.5692 138.712 75.1492C135.64 76.6709 132.259 77.4672 128.831 77.4766C124.949 77.5069 121.128 76.5151 117.751 74.601C117.62 74.5182 117.526 74.3876 117.489 74.2369C117.452 74.0862 117.475 73.927 117.554 73.7931C117.632 73.6591 117.759 73.5608 117.909 73.5189C118.058 73.477 118.218 73.4948 118.354 73.5685C121.415 75.2833 124.853 76.2144 128.36 76.2788C131.868 76.3431 135.338 75.5387 138.459 73.9373C141.629 72.2755 144.14 69.5924 147.369 68.0353C148.74 67.3702 150.23 66.9838 151.751 66.8984C153.272 66.813 154.795 67.0304 156.232 67.538C157.829 68.0737 159.294 68.9423 160.53 70.0864C161.767 71.2306 162.746 72.6242 163.403 74.175C163.693 74.8873 162.537 75.1973 162.25 74.4929V74.4928Z" fill="#3F3D56"/>
<path d="M163.195 85.6705C156.558 84.189 149.673 84.2129 143.046 85.7403C137.159 87.1053 131.083 89.5609 125.013 87.7295C122.302 86.9113 119.817 85.2748 118.424 82.7563C118.051 82.0823 119.083 81.4784 119.456 82.1527C122.079 86.8948 128.224 87.6949 133.077 86.9168C136.32 86.3969 139.445 85.3544 142.637 84.6084C149.499 82.9999 156.637 82.9688 163.513 84.5175C164.264 84.6851 163.946 85.8382 163.195 85.6705Z" fill="#3F3D56"/>
<path d="M163.626 58.9413C157.262 57.8591 150.744 58.0909 144.473 59.6225C138.615 61.0576 132.888 64.3363 126.694 63.77C123.826 63.5079 120.987 62.4533 119.039 60.2597C118.529 59.686 119.372 58.8373 119.884 59.4142C121.565 61.3065 123.986 62.2873 126.47 62.5522C129.333 62.8576 132.146 62.2645 134.871 61.4219C137.887 60.4891 140.818 59.3075 143.884 58.5365C150.445 56.8894 157.278 56.6344 163.944 57.7882C164.701 57.9175 164.38 59.07 163.626 58.9413Z" fill="#3F3D56"/>
<path d="M73.2579 56.1014C70.5083 58.9167 68.6117 62.4526 67.7875 66.3003C67.1536 69.3611 67.225 72.5261 67.9964 75.5552C68.7678 78.5844 70.2189 81.3981 72.2396 83.7832C72.7352 84.3665 71.8931 85.2164 71.3939 84.6287C68.641 81.3859 66.8831 77.4173 66.3315 73.1997C65.9295 69.9441 66.2675 66.6397 67.3204 63.5328C68.3732 60.426 70.1138 57.5967 72.4123 55.2559C72.952 54.7055 73.7975 55.5513 73.2579 56.1014Z" fill="#3F3D56"/>
<path d="M55.3139 53.5497C58.9792 56.2375 61.0312 60.5759 61.3199 65.0632C61.6204 69.7322 59.8395 74.2413 56.9715 77.8664C55.2982 79.9536 53.2994 81.7577 51.052 83.2091C50.4061 83.6316 49.8062 82.5967 50.4484 82.1765C54.11 79.7811 57.2431 76.3784 58.907 72.295C59.718 70.3553 60.1385 68.2747 60.1445 66.1724C60.1504 64.07 59.7417 61.9871 58.9416 60.0429C58.0456 57.8767 56.5843 55.9909 54.7103 54.5823C54.096 54.1318 54.692 53.0937 55.3139 53.5497Z" fill="#3F3D56"/>
<path d="M139.398 65.5719C136.315 65.5719 133.816 63.0734 133.816 59.9915C133.816 56.9096 136.315 54.4112 139.398 54.4112C142.48 54.4112 144.979 56.9096 144.979 59.9915C144.979 63.0734 142.48 65.5719 139.398 65.5719Z" fill="#3F3D56"/>
</g>
<defs>
<clipPath id="clip0">
<rect width="352" height="244" fill="white" transform="matrix(-1 0 0 1 352 0)"/>
</clipPath>
</defs>
</svg>
